<svg width="24" height="24" viewBox="0 0 24 24" fill="none" xmlns="http://www.w3.org/2000/svg">
<path fill-rule="evenodd" clip-rule="evenodd" d="M7.04762 0.0714428C8.32857 0.0142885 8.7381 0 11.9952 0C15.2524 0 15.6619 0.0142885 16.9476 0.0666799C18.2286 0.123834 19.1 0.328637 19.8619 0.623933C20.6476 0.933519 21.319 1.34312 21.9857 2.00992C22.6524 2.67672 23.0667 3.34352 23.3714 4.13415C23.6667 4.90097 23.8714 5.77257 23.9286 7.04902C23.9857 8.33022 24 8.73507 24 11.9976C24 15.2602 23.9857 15.665 23.9286 16.9462C23.8714 18.2274 23.6667 19.099 23.3714 19.8611C23.0619 20.647 22.6524 21.3185 21.9857 21.9853C21.319 22.6521 20.6524 23.0665 19.8619 23.3713C19.0952 23.6666 18.2238 23.8714 16.9476 23.9286C15.6667 23.9857 15.2619 24 12 24C8.7381 24 8.33333 23.9857 7.05238 23.9286C5.77143 23.8714 4.9 23.6666 4.1381 23.3713C3.35238 23.0617 2.68095 22.6521 2.01429 21.9853C1.34762 21.3185 0.933333 20.6517 0.628572 19.8611C0.333333 19.0943 0.128571 18.2227 0.0714286 16.9462C0.0142857 15.665 0 15.2554 0 11.9976C0 8.73983 0.0142857 8.33022 0.0714286 7.05378C0.128571 5.77257 0.333333 4.90097 0.628572 4.13892C0.938095 3.35305 1.34762 2.68148 2.01429 2.01469C2.68095 1.34789 3.34762 0.933519 4.1381 0.628696C4.9 0.3334 5.77143 0.128597 7.04762 0.0714428ZM16.843 2.23355C15.5763 2.1764 15.2001 2.16211 11.9954 2.16211C8.7906 2.16211 8.41441 2.17164 7.14775 2.23355C5.97632 2.28594 5.34298 2.48598 4.91917 2.64792C4.35727 2.86225 3.95727 3.12421 3.53822 3.54334C3.11917 3.96247 2.86203 4.36255 2.64298 4.92456C2.47632 5.34846 2.28108 5.98191 2.2287 7.15358C2.17155 8.42049 2.15727 8.79676 2.15727 12.0022C2.15727 15.2076 2.17155 15.5838 2.2287 16.8507C2.28108 18.0224 2.48108 18.6559 2.64298 19.0798C2.85727 19.6418 3.11917 20.0418 3.53822 20.461C3.95727 20.8801 4.35727 21.1373 4.91917 21.3564C5.34298 21.5231 5.97632 21.7184 7.14775 21.7708C8.41441 21.8279 8.7906 21.8422 11.9954 21.8422C15.2001 21.8422 15.5763 21.8279 16.843 21.7708C18.0144 21.7184 18.6477 21.5183 19.0716 21.3564C19.6335 21.1421 20.0335 20.8801 20.4525 20.461C20.8716 20.0418 21.1287 19.6418 21.3477 19.0798C21.5144 18.6559 21.7097 18.0224 21.762 16.8507C21.8192 15.5838 21.8335 15.2076 21.8335 12.0022C21.8335 8.79676 21.8192 8.42049 21.762 7.15358C21.7097 5.98191 21.5097 5.34846 21.3477 4.92456C21.1335 4.36255 20.8716 3.96247 20.4525 3.54334C20.0335 3.12421 19.6335 2.86701 19.0716 2.64792C18.6477 2.48122 18.0144 2.28594 16.843 2.23355ZM6 12C6 8.6847 8.68934 6 12 6C15.3107 6 18 8.68934 18 12C18 15.3107 15.3107 18 12 18C8.68934 18 6 15.3153 6 12ZM8.10543 12.0003C8.10543 14.1518 9.84886 15.8952 12.0003 15.8952C14.1518 15.8952 15.8952 14.1518 15.8952 12.0003C15.8952 9.84886 14.1518 8.10543 12.0003 8.10543C9.84886 8.10543 8.10543 9.84886 8.10543 12.0003ZM17.9998 6.00008C18.6626 6.00008 19.1998 5.46282 19.1998 4.80008C19.1998 4.13733 18.6626 3.60008 17.9998 3.60008C17.3371 3.60008 16.7998 4.13733 16.7998 4.80008C16.7998 5.46282 17.3371 6.00008 17.9998 6.00008Z" fill="white"/>
</svg>
