<svg width="315" height="31" viewBox="0 0 315 31" fill="none" xmlns="http://www.w3.org/2000/svg">
<path d="M4.87754 14.682C4.87754 18.7091 5.87032 21.8412 7.85586 24.0785C9.87019 26.3157 12.3593 27.4344 15.3233 27.4344C17.4815 27.4344 20.3447 26.4835 23.9129 24.5819L25.0783 26.3018C23.7546 27.2526 22.7187 27.9378 21.9705 28.3572C21.2511 28.7767 20.431 29.2102 19.5102 29.6576C17.6397 30.5246 15.6398 30.958 13.5104 30.958C9.76947 30.958 6.57533 29.6017 3.92793 26.889C1.30931 24.1764 0 20.5408 0 15.9824C0 11.424 1.52513 7.71854 4.57539 4.86603C7.62566 1.98557 11.4097 0.545332 15.9275 0.545332C18.949 0.545332 21.7835 1.21651 24.4309 2.55886C24.0856 4.3207 23.4813 5.80289 22.618 7.00541C19.654 4.68426 16.4455 3.52368 12.9924 3.52368C11.9565 3.52368 10.9493 3.62156 9.9709 3.81732C8.50333 4.88002 7.28034 6.32025 6.30196 8.13802C5.35235 9.9558 4.87754 12.1371 4.87754 14.682Z" fill="white"/>
<path d="M38.1709 22.023C36.9911 21.6035 35.6242 21.3938 34.0703 21.3938C32.5452 21.3938 31.4373 21.6315 30.7467 22.1069C30.315 22.7501 30.0992 23.617 30.0992 24.7077C30.0992 25.7704 30.4013 26.6094 31.0056 27.2246C31.6099 27.8399 32.3581 28.1475 33.2502 28.1475C34.171 28.1475 35.1062 27.9238 36.0558 27.4763C37.0055 27.0009 37.7105 26.4975 38.1709 25.9662V22.023ZM38.8615 28.0636C37.1062 29.9373 35.1206 30.8742 32.9049 30.8742C30.7179 30.8742 28.9913 30.4127 27.7252 29.4899C26.4878 28.567 25.8691 27.0848 25.8691 25.0433C25.8691 22.9738 26.6029 21.4917 28.0705 20.5968C29.5668 19.7018 31.6675 19.2544 34.3724 19.2544L38.1709 19.3802V16.9892C38.1709 15.507 37.7968 14.3045 37.0486 13.3816C36.3004 12.4587 35.1638 11.9973 33.6386 11.9973C32.5164 12.0253 30.7179 13.074 28.2431 15.1434C27.4086 14.1087 26.8187 12.7664 26.4734 11.1164C29.3222 10.2215 31.9409 9.77402 34.3293 9.77402C36.7177 9.77402 38.6313 10.3753 40.0701 11.5778C41.5089 12.7803 42.2283 14.4862 42.2283 16.6955V23.7429C42.2571 25.0014 42.4585 26.1759 42.8326 27.2666C43.2355 28.3293 43.7534 29.0704 44.3865 29.4899L44.4728 29.9093L39.8543 31C39.4802 30.1051 39.1493 29.1263 38.8615 28.0636Z" fill="white"/>
<path d="M52.2383 25.7145C52.2383 27.1967 52.6987 27.9378 53.6196 27.9378C54.3965 27.9378 55.7058 27.4903 57.5475 26.5954L58.454 28.0636C57.5331 28.6788 56.3821 29.3081 55.0008 29.9513C53.6196 30.5665 52.3534 30.8742 51.2024 30.8742C50.0513 30.8742 49.26 30.5246 48.8284 29.8254C48.3967 29.1263 48.1809 28.1195 48.1809 26.8051V12.6685L44.2961 12.8782L45.3321 10.1516C45.85 10.2075 46.7709 10.2634 48.0946 10.3193C48.037 8.92106 47.9507 7.66261 47.8356 6.54398L52.2383 5.45332V10.2774C53.7922 10.2215 55.9073 10.0537 58.5834 9.77402L57.3749 13.046C55.8209 12.8223 54.1088 12.6825 52.2383 12.6265V25.7145Z" fill="white"/>
<path d="M65.7979 4.61434C65.7979 5.20162 65.726 5.76094 65.5821 6.29228C65.467 6.82363 65.2943 7.35498 65.0641 7.88633C64.8627 8.38972 64.5749 8.93505 64.2009 9.52233C63.7117 10.3333 63.0354 11.3121 62.1721 12.4587L60.5319 11.9973C61.0499 11.1024 61.4383 10.3893 61.6973 9.85791C62.2441 8.68336 62.5174 7.49481 62.5174 6.29228C62.5174 5.9567 62.4887 5.62111 62.4311 5.28552C62.1146 4.47451 61.3808 3.56563 60.2298 2.55886L60.2729 2.05548C60.906 1.52413 61.3664 1.17456 61.6542 1.00677C61.9419 0.811006 62.1865 0.643212 62.388 0.503382C62.762 0.19576 63.0354 0.0279654 63.2081 0C63.5534 0.195759 63.7404 0.307623 63.7692 0.33559C65.1217 1.76184 65.7979 3.18809 65.7979 4.61434Z" fill="white"/>
<path d="M69.7828 12.4168C69.2649 12.9202 69.0059 13.6193 69.0059 14.5142C69.0059 15.3811 69.2936 16.0663 69.8692 16.5697C70.4447 17.0451 71.1641 17.3947 72.0274 17.6184C72.9194 17.8421 73.869 18.1218 74.8762 18.4574C75.8834 18.793 76.8186 19.1565 77.6819 19.548C78.5739 19.9116 79.3077 20.5129 79.8832 21.3518C80.4588 22.1908 80.7465 23.2115 80.7465 24.4141C80.7465 26.5395 79.9408 28.1475 78.3293 29.2382C76.7179 30.3288 74.5884 30.8742 71.9411 30.8742C69.3224 30.8742 66.9916 30.217 64.9485 28.9026C65.0348 27.4763 65.4664 26.2039 66.2434 25.0852C68.8332 27.3784 71.1929 28.525 73.3223 28.525C74.2431 28.525 75.0632 28.3433 75.7826 27.9797C76.4733 27.3924 76.8186 26.6094 76.8186 25.6306C76.8186 24.6238 76.4157 23.8548 75.61 23.3234C74.833 22.7641 73.8834 22.3306 72.7612 22.023C71.6389 21.7154 70.5166 21.3658 69.3944 20.9743C68.2721 20.5828 67.3081 19.9675 66.5024 19.1286C65.7254 18.2896 65.3369 17.1989 65.3369 15.8566C65.3369 13.899 66.0851 12.4028 67.5815 11.3681C69.1066 10.3054 71.0202 9.77402 73.3223 9.77402C75.6244 9.77402 77.8833 10.2494 80.0991 11.2003C79.8401 12.4308 79.3365 13.6613 78.5883 14.8917C76.5452 12.9062 74.4158 11.9134 72.2 11.9134C71.2504 11.9134 70.4447 12.0812 69.7828 12.4168Z" fill="white"/>
<path d="M87.8089 30.4127V1.63599H93.9814L103.952 25.1691H104.039L114.053 1.63599H120.225V30.4127H116.384V5.91475H116.168L105.808 30.4127H101.794L91.4779 5.91475H91.262V30.4127H87.8089Z" fill="white"/>
<path d="M134.063 30.8322C132.164 30.8322 130.481 30.4127 129.013 29.5737C127.574 28.7348 126.452 27.5183 125.646 25.9242C124.841 24.3022 124.438 22.3586 124.438 20.0934V19.2963C124.438 17.0032 124.855 15.0595 125.689 13.4655C126.553 11.8435 127.718 10.627 129.186 9.81597C130.682 8.97699 132.38 8.55751 134.279 8.55751H134.668C136.365 8.55751 137.89 8.90708 139.243 9.60622C140.595 10.3054 141.646 11.3261 142.394 12.6685C143.171 14.0108 143.559 15.6049 143.559 17.4506V20.0934H128.15C128.15 21.8272 128.394 23.2954 128.884 24.498C129.373 25.7005 130.078 26.6234 130.999 27.2666C131.919 27.8818 133.042 28.1894 134.365 28.1894C135.43 28.1894 136.394 27.9797 137.257 27.5602C138.121 27.1407 138.811 26.5115 139.329 25.6725C139.847 24.8056 140.106 23.7289 140.106 22.4425H143.559C143.559 24.1764 143.142 25.6725 142.308 26.931C141.502 28.1615 140.408 29.1263 139.027 29.8254C137.646 30.4966 136.106 30.8322 134.409 30.8322H134.063ZM128.193 17.7862H140.02C140.02 15.5489 139.516 13.885 138.509 12.7943C137.502 11.7037 136.106 11.1583 134.322 11.1583C132.682 11.1583 131.286 11.7176 130.135 12.8363C128.984 13.9269 128.337 15.5769 128.193 17.7862Z" fill="white"/>
<path d="M156.483 30.8322C154.613 30.8322 152.944 30.3987 151.476 29.5318C150.008 28.6649 148.857 27.4344 148.023 25.8403C147.188 24.2183 146.771 22.2747 146.771 20.0095V19.3383C146.771 17.0731 147.188 15.1434 148.023 13.5494C148.886 11.9274 150.052 10.6969 151.519 9.85791C153.015 8.99098 154.684 8.55751 156.526 8.55751H156.958C158.828 8.55751 160.497 8.99098 161.965 9.85791C163.432 10.6969 164.583 11.9274 165.418 13.5494C166.252 15.1434 166.67 17.0731 166.67 19.3383V20.0095C166.67 22.2747 166.238 24.2183 165.375 25.8403C164.54 27.4623 163.389 28.7068 161.922 29.5737C160.454 30.4127 158.785 30.8322 156.915 30.8322H156.483ZM156.699 28.1894C157.879 28.1894 158.929 27.9238 159.85 27.3924C160.799 26.8331 161.548 26.0081 162.094 24.9175C162.641 23.7988 162.914 22.4285 162.914 20.8065V18.5413C162.914 16.8913 162.641 15.521 162.094 14.4303C161.548 13.3396 160.799 12.5286 159.85 11.9973C158.929 11.438 157.879 11.1583 156.699 11.1583C155.548 11.1583 154.497 11.438 153.548 11.9973C152.627 12.5286 151.893 13.3396 151.346 14.4303C150.8 15.521 150.526 16.8913 150.526 18.5413V20.8065C150.526 22.4285 150.8 23.7988 151.346 24.9175C151.893 26.0081 152.627 26.8331 153.548 27.3924C154.497 27.9238 155.548 28.1894 156.699 28.1894Z" fill="white"/>
<path d="M175.56 30.4127L168.222 8.977H171.977L177.416 25.0014H177.589L183.027 8.977H186.912L192.394 25.0014H192.566L197.962 8.977H201.458L194.077 30.4127H190.581L184.926 13.885H184.754L179.099 30.4127H175.56Z" fill="white"/>
<path d="M209.482 1.13261L215.914 1.04871C222.82 1.04871 226.273 3.46775 226.273 8.30582C226.273 10.6549 225.467 12.6265 223.856 14.2206C222.273 15.7866 220.158 16.7235 217.511 17.0311L222.475 23.1137C224.547 25.6585 226.101 27.3924 227.136 28.3153C228.172 29.2382 229.064 29.7975 229.813 29.9932V30.4127H222.734C222.187 29.5458 221.324 28.3013 220.144 26.6793L213.151 17.157L211.9 17.0731V23.659C211.9 26.5954 212.115 28.7488 212.547 30.1191V30.4127H206.634V30.1191C207.18 28.6928 207.454 26.6933 207.454 24.1204V7.84438C207.454 4.93595 207.238 2.76861 206.806 1.34236V1.04871C206.806 1.04871 207.698 1.07668 209.482 1.13261ZM215.353 3.18809C213.971 3.18809 212.864 3.24402 212.029 3.35589C211.943 3.97113 211.9 7.85837 211.9 15.0176C212.936 15.1295 213.928 15.1854 214.878 15.1854C217.295 15.1854 218.993 14.654 219.971 13.5913C220.978 12.5007 221.482 10.9066 221.482 8.8092C221.482 6.68381 221.022 5.21561 220.101 4.4046C219.18 3.59359 217.597 3.18809 215.353 3.18809Z" fill="white"/>
<path d="M235.969 30.8742C232.947 30.8742 230.588 29.9653 228.89 28.1475C227.192 26.3297 226.343 23.9387 226.343 20.9743C226.343 17.982 227.293 15.3672 229.192 13.1299C231.091 10.8926 233.451 9.77402 236.271 9.77402C241.422 9.77402 243.997 12.8642 243.997 19.0447L242.4 20.5548H230.919C230.919 22.9039 231.437 24.6658 232.473 25.8403C233.509 27.0149 234.904 27.6022 236.66 27.6022C237.35 27.6022 238.329 27.4064 239.595 27.0149C240.861 26.5954 241.983 26.106 242.962 25.5467L244.041 27.1407C243.494 27.6721 242.3 28.4272 240.458 29.406C238.645 30.3848 237.149 30.8742 235.969 30.8742ZM235.494 11.8714C234.286 11.8714 233.35 12.1371 232.688 12.6685C232.142 13.3956 231.71 14.3184 231.394 15.4371C231.077 16.5557 230.919 17.5345 230.919 18.3735L239.767 18.0379C239.767 13.9269 238.343 11.8714 235.494 11.8714Z" fill="white"/>
<path d="M250.564 12.4168C250.047 12.9202 249.788 13.6193 249.788 14.5142C249.788 15.3811 250.075 16.0663 250.651 16.5697C251.226 17.0451 251.946 17.3947 252.809 17.6184C253.701 17.8421 254.651 18.1218 255.658 18.4574C256.665 18.793 257.6 19.1565 258.464 19.548C259.356 19.9116 260.089 20.5129 260.665 21.3518C261.24 22.1908 261.528 23.2115 261.528 24.4141C261.528 26.5395 260.722 28.1475 259.111 29.2382C257.5 30.3288 255.37 30.8742 252.723 30.8742C250.104 30.8742 247.773 30.217 245.73 28.9026C245.816 27.4763 246.248 26.2039 247.025 25.0852C249.615 27.3784 251.975 28.525 254.104 28.525C255.025 28.525 255.845 28.3433 256.564 27.9797C257.255 27.3924 257.6 26.6094 257.6 25.6306C257.6 24.6238 257.197 23.8548 256.392 23.3234C255.615 22.7641 254.665 22.3306 253.543 22.023C252.421 21.7154 251.298 21.3658 250.176 20.9743C249.054 20.5828 248.09 19.9675 247.284 19.1286C246.507 18.2896 246.119 17.1989 246.119 15.8566C246.119 13.899 246.867 12.4028 248.363 11.3681C249.888 10.3054 251.802 9.77402 254.104 9.77402C256.406 9.77402 258.665 10.2494 260.881 11.2003C260.622 12.4308 260.118 13.6613 259.37 14.8917C257.327 12.9062 255.197 11.9134 252.982 11.9134C252.032 11.9134 251.226 12.0812 250.564 12.4168Z" fill="white"/>
<path d="M272.924 30.9161C269.902 30.9161 267.514 29.9932 265.759 28.1475C264.003 26.2738 263.126 23.8408 263.126 20.8484C263.126 17.8281 264.147 15.2273 266.19 13.046C268.233 10.8647 270.794 9.77402 273.873 9.77402C276.981 9.77402 279.37 10.6829 281.039 12.5007C282.736 14.3184 283.585 16.7515 283.585 19.7997C283.585 22.848 282.564 25.4628 280.521 27.6441C278.478 29.8254 275.945 30.9161 272.924 30.9161ZM279.01 20.8484C279.01 18.0798 278.564 15.9405 277.672 14.4303C276.78 12.9202 275.197 12.1651 272.924 12.1651C271.456 12.1651 270.305 12.4727 269.471 13.088C268.953 13.7312 268.521 14.71 268.176 16.0244C267.859 17.3387 267.701 18.5972 267.701 19.7997C267.701 25.6446 269.83 28.567 274.089 28.567C275.413 28.567 276.492 28.2733 277.327 27.6861C277.873 27.0428 278.291 26.0501 278.578 24.7077C278.866 23.3654 279.01 22.0789 279.01 20.8484Z" fill="white"/>
<path d="M297.895 9.77402C298.787 9.77402 299.449 9.8719 299.881 10.0677C299.881 10.2355 299.881 10.4032 299.881 10.571C299.881 12.221 299.622 13.7172 299.104 15.0595C297.809 14.2485 296.341 13.843 294.701 13.843C293.809 13.843 292.917 13.9968 292.025 14.3045V23.2815C292.025 25.9941 292.442 28.2733 293.277 30.1191V30.4127H287.234V30.1191C287.723 28.7208 287.968 26.8611 287.968 24.5399V17.4087C287.968 16.2061 287.709 15.0316 287.191 13.885C286.701 12.7104 286.126 11.9274 285.464 11.5359L285.421 11.0325L290.514 9.73207C290.975 10.4871 291.349 11.3681 291.636 12.3748C293.363 10.641 295.449 9.77402 297.895 9.77402Z" fill="white"/>
<path d="M308.655 25.7145C308.655 27.1967 309.115 27.9378 310.036 27.9378C310.813 27.9378 312.122 27.4903 313.964 26.5954L314.871 28.0636C313.95 28.6788 312.799 29.3081 311.417 29.9513C310.036 30.5665 308.77 30.8742 307.619 30.8742C306.468 30.8742 305.677 30.5246 305.245 29.8254C304.813 29.1263 304.598 28.1195 304.598 26.8051V12.6685L300.713 12.8782L301.749 10.1516C302.267 10.2075 303.187 10.2634 304.511 10.3193C304.454 8.92106 304.367 7.66261 304.252 6.54398L308.655 5.45332V10.2774C310.209 10.2215 312.324 10.0537 315 9.77402L313.791 13.046C312.238 12.8223 310.525 12.6825 308.655 12.6265V25.7145Z" fill="white"/>
</svg>
