<svg width="24" height="20" viewBox="0 0 24 20" fill="none" xmlns="http://www.w3.org/2000/svg">
<path d="M21.5426 4.9786C21.553 5.19529 21.557 5.41466 21.557 5.63135C21.557 12.306 16.6043 20 7.54826 20C4.76609 20 2.17957 19.164 0 17.7301C0.386087 17.7769 0.777391 17.801 1.17391 17.801C3.48261 17.801 5.60478 16.993 7.2887 15.6407C5.13522 15.5993 3.31565 14.1413 2.68957 12.1348C2.98957 12.1923 3.2987 12.2231 3.61565 12.2231C4.06565 12.2231 4.5013 12.1629 4.91348 12.0479C2.66087 11.5824 0.963913 9.54254 0.963913 7.0947C0.963913 7.0733 0.963913 7.05324 0.963913 7.03184C1.62783 7.41038 2.38826 7.63777 3.19435 7.66453C1.87304 6.75762 1.00304 5.21402 1.00304 3.46041C1.00304 2.53612 1.24565 1.668 1.67087 0.921616C4.09826 3.97806 7.72826 5.98716 11.82 6.1985C11.7365 5.82798 11.6935 5.44409 11.6935 5.04682C11.6935 2.25923 13.8965 0 16.6161 0C18.0326 0 19.3122 0.611289 20.2109 1.5931C21.3313 1.3657 22.3852 0.945693 23.3374 0.367844C22.9696 1.54628 22.1883 2.53612 21.1722 3.16078C22.1687 3.03772 23.1157 2.76886 24 2.36624C23.34 3.38015 22.5052 4.26833 21.5426 4.9786Z" fill="white"/>
</svg>
